<svg xmlns="http://www.w3.org/2000/svg" xmlns:xlink="http://www.w3.org/1999/xlink" viewBox="0 0 1024 1024"><defs><style>.a{clip-path:url(#b);}.b{fill:#ab3f60;}</style><clipPath id="b"><rect width="1024" height="1024"/></clipPath></defs><g id="a" class="a"><g transform="translate(1204.192 -4.201) rotate(90)"><path class="b" d="M493.906,727.422H439.658a221.994,221.994,0,0,1-38.836-3.005c-11.045-1.994-20.378-5.028-27.741-9.016s-12.963-9.044-16.645-15.026a39.5,39.5,0,0,1-5.548-21.036V413.029a84.1,84.1,0,0,1,2.235-20.5,40.364,40.364,0,0,1,6.7-14.641A28.011,28.011,0,0,1,371,369.1a38.983,38.983,0,0,1,15.642-2.928h44.385c39.269,0,75.358,2.281,107.265,6.781a266.263,266.263,0,0,1,44.54,10.017,192,192,0,0,1,37.45,16.491,130.735,130.735,0,0,1,29.9,23.734,134.7,134.7,0,0,1,21.885,31.747c5.931,11.864,10.442,25.76,13.408,41.3a282.044,282.044,0,0,1,4.47,52.4,261.437,261.437,0,0,1-3.7,45.463,168.3,168.3,0,0,1-11.1,37.759,156.257,156.257,0,0,1-17.722,30.822,138.229,138.229,0,0,1-23.58,24.659,153.779,153.779,0,0,1-28.819,18.494,173.332,173.332,0,0,1-33.443,12.33C547.853,724.311,521.72,727.422,493.906,727.422Zm-304.684-6.648h0a119.737,119.737,0,0,1-20.244-26.82L15.015,416.235a119.876,119.876,0,0,1,2.092-119.805l163.561-272.2A120.213,120.213,0,0,1,192.847,7.445,77.419,77.419,0,0,1,209.129,19.76a67.156,67.156,0,0,1,11.629,15.6c6.173,11.445,9.3,25.265,9.3,41.077V663.31a67.057,67.057,0,0,1-2.552,18.881,53.193,53.193,0,0,1-7.657,15.871,57.758,57.758,0,0,1-12.762,12.861,82.2,82.2,0,0,1-17.866,9.851ZM817.593,497.44v-.007a162.075,162.075,0,0,0-57.375-99.2,247.661,247.661,0,0,0-32.672-23.04,285.758,285.758,0,0,0-37.6-18.571,348.437,348.437,0,0,0-42.535-14.1,439.82,439.82,0,0,0-47.467-9.632v-4.931a627.874,627.874,0,0,0,68.425-27.126c20.863-9.816,39.115-22.052,54.249-36.369a149.339,149.339,0,0,0,35.139-50.551,145.448,145.448,0,0,0,8.836-29.666,209.248,209.248,0,0,0,3.442-34.793l89.612,161.684a119.749,119.749,0,0,1-2.092,119.8L817.6,497.434ZM386.642,318.093A51.4,51.4,0,0,1,371,315.936a28.382,28.382,0,0,1-11.173-6.473,27.049,27.049,0,0,1-6.7-10.788,46.507,46.507,0,0,1-2.235-15.1V45.618a36.783,36.783,0,0,1,5.394-19.957c3.579-5.676,9.024-10.472,16.182-14.255s16.233-6.662,26.97-8.553A221.054,221.054,0,0,1,437.192,0h48.083A273.406,273.406,0,0,1,523.13,2.485,190.872,190.872,0,0,1,555.937,9.94,141.194,141.194,0,0,1,583.7,22.366a117.664,117.664,0,0,1,22.713,17.4,116.328,116.328,0,0,1,17.665,22.366,136.99,136.99,0,0,1,12.619,27.336,183.132,183.132,0,0,1,7.571,32.307,261.165,261.165,0,0,1,2.524,37.277c0,28.631-2.9,53.312-8.631,73.358a85.662,85.662,0,0,1-13.408,27.432,95.889,95.889,0,0,1-22.964,21.884c-9.2,6.341-20.506,11.889-33.6,16.491a276.606,276.606,0,0,1-45.31,11.25C488.923,315.189,443.086,318.093,386.642,318.093Z" transform="translate(78.715 328.112)"/></g></g></svg>