<?xml version="1.0" encoding="UTF-8"?>
<svg width="165px" height="165px" viewBox="0 0 165 165" version="1.1" xmlns="http://www.w3.org/2000/svg" xmlns:xlink="http://www.w3.org/1999/xlink">
    <!-- Generator: Sketch 49.3 (51167) - http://www.bohemiancoding.com/sketch -->
    <title>logo</title>
    <desc>Created with Sketch.</desc>
    <defs>
        <path d="M25.5859375,42.4414062 L25.5859375,145.9375 C25.5859375,164.804688 34.921875,170.429688 34.921875,170.429688 C40.078125,175.566406 48.4375,175.566406 53.59375,170.429688 C58.75,165.292969 67.109375,165.292969 72.265625,170.429688 C77.421875,175.566406 85.78125,175.566406 90.9375,170.429688 C96.09375,165.292969 104.453125,165.292969 109.609375,170.429688 C114.765625,175.566406 123.125,175.566406 128.28125,170.429688 C133.4375,165.292969 141.796875,165.292969 146.953125,170.429688 C152.109375,175.566406 160.46875,175.566406 165.625,170.429688 C165.625,170.429688 174.960938,164.042969 174.960938,145.9375 C174.960938,127.832031 174.921875,42.4414062 174.921875,42.4414062 C174.921875,32.7929688 167.050781,24.9804688 157.363281,24.9804688 L43.1054688,24.9804688 C33.4570313,24.9804688 25.5859375,32.7929688 25.5859375,42.4414062 Z" id="path-1"></path>
        <filter x="-9.4%" y="-6.7%" width="118.7%" height="118.8%" filterUnits="objectBoundingBox" id="filter-2">
            <feOffset dx="0" dy="4" in="SourceAlpha" result="shadowOffsetOuter1"></feOffset>
            <feGaussianBlur stdDeviation="4" in="shadowOffsetOuter1" result="shadowBlurOuter1"></feGaussianBlur>
            <feColorMatrix values="0 0 0 0 0.470588235   0 0 0 0 0.478431373   0 0 0 0 0.964705882  0 0 0 0.276098279 0" type="matrix" in="shadowBlurOuter1"></feColorMatrix>
        </filter>
    </defs>
    <g id="Page-1" stroke="none" stroke-width="1" fill="none" fill-rule="evenodd">
        <g id="screen" transform="translate(-638.000000, -132.000000)" fill-rule="nonzero">
            <g id="logo" transform="translate(620.000000, 111.000000)">
                <rect id="range" fill="#000000" opacity="0" x="0" y="0" width="200" height="200"></rect>
                <g id="appearance">
                    <use fill="black" fill-opacity="1" filter="url(#filter-2)" xlink:href="#path-1"></use>
                    <use fill="#787AF6" fill-rule="evenodd" xlink:href="#path-1"></use>
                </g>
                <path d="M57.7539062,55.3320312 C54.0039062,55.3320312 50.9570312,58.3789062 50.9570312,62.1289062 L50.9570312,70.703125 C50.9570312,74.453125 54.0039062,77.5 57.7539062,77.5 L152.832031,77.5 C156.582031,77.5 159.628906,74.453125 159.628906,70.703125 L159.628906,62.1289062 C159.628906,58.3789062 156.582031,55.3320312 152.832031,55.3320312 L57.7539062,55.3320312 Z M98.4960937,92.6953125 L57.7539062,92.6953125 C54.0039063,92.6953125 50.9570312,93.2421875 50.9570312,96.9921875 C50.9570312,100.742188 54.0039062,101.289062 57.7539062,101.289062 L98.4960938,101.289062 C102.246094,101.289062 105.292969,100.742188 105.292969,96.9921875 C105.292969,93.2421875 102.246094,92.6953125 98.4960937,92.6953125 Z M98.4960937,116.464844 L57.7539062,116.464844 C54.0039063,116.464844 50.9570312,117.011719 50.9570312,120.761719 C50.9570312,124.511719 54.0039062,125.058594 57.7539062,125.058594 L98.4960938,125.058594 C102.246094,125.058594 105.292969,124.511719 105.292969,120.761719 C105.292969,117.011719 102.246094,116.464844 98.4960937,116.464844 Z" id="section" fill="#FFFFFF"></path>
                <path d="M37.8125,54.6289062 C35.8789062,54.6289062 34.296875,53.046875 34.296875,51.1132812 L34.296875,49.1796875 C34.296875,40.2148438 41.6015625,32.9101562 50.5664062,32.9101562 L53.7109375,32.9101562 C55.6445312,32.9101562 57.2265625,34.4921875 57.2265625,36.4257812 C57.2265625,38.359375 55.6445312,39.9414062 53.7109375,39.9414062 L50.546875,39.9414062 C45.4492188,39.9414062 41.3085938,44.0820312 41.3085938,49.1796875 L41.3085938,51.1132812 C41.328125,53.046875 39.7460938,54.6289062 37.8125,54.6289062 Z M37.8125,68.2226562 C35.8789062,68.2226562 34.296875,66.640625 34.296875,64.7070312 L34.296875,62.65625 C34.296875,60.7226562 35.8789062,59.140625 37.8125,59.140625 C39.7460938,59.140625 41.328125,60.7226562 41.328125,62.65625 L41.328125,64.7070312 C41.328125,66.640625 39.7460938,68.2226562 37.8125,68.2226562 Z" id="highlight" fill="#FFFFFF"></path>
            </g>
        </g>
    </g>
</svg>