<?xml version="1.0" encoding="UTF-8"?>
<svg width="512px" height="434px" viewBox="0 0 512 434" version="1.1" xmlns="http://www.w3.org/2000/svg" xmlns:xlink="http://www.w3.org/1999/xlink">
    <!-- Generator: Sketch 53.2 (72643) - https://sketchapp.com -->
    <title>care</title>
    <desc>Created with Sketch.</desc>
    <g id="Page-1" stroke="none" stroke-width="1" fill="none" fill-rule="evenodd">
        <g id="Artboard" transform="translate(-73.000000, -131.000000)" fill-rule="nonzero">
            <g id="care" transform="translate(73.000000, 131.000000)">
                <path d="M305.553,371.719 L266.754,371.719 C261.232,371.719 256.755,376.195 256.755,381.718 C256.755,387.241 261.232,391.717 266.754,391.717 L305.553,391.717 C311.541,391.717 316.413,396.588 316.413,402.576 C316.413,408.564 311.542,413.435 305.553,413.435 L201.109,413.435 C185.409,413.435 170.645,406.513 160.605,394.443 L135.628,364.421 C122.226,348.311 102.721,338.876 81.851,338.279 L81.851,279.212 L118.667,279.212 C136.823,279.212 154.014,286.156 167.075,298.764 L220.983,350.799 C224.794,354.478 224.972,360.638 221.379,364.53 C217.717,368.496 211.501,368.755 207.522,365.108 L165.199,326.312 C161.13,322.581 154.804,322.855 151.073,326.926 C147.341,330.997 147.616,337.322 151.687,341.053 L194.01,379.849 C199.718,385.081 206.941,387.665 214.146,387.665 C222.19,387.665 230.211,384.444 236.074,378.093 C246.98,366.278 246.441,347.58 234.872,336.412 L180.964,284.377 C164.155,268.151 142.031,259.215 118.667,259.215 L79.909,259.215 C76.147,250.311 67.324,244.046 57.066,244.046 L9.999,244.046 C4.477,244.046 0,248.522 0,254.045 L0,327.162 C0,332.684 4.477,337.161 9.999,337.161 C15.521,337.161 19.998,332.685 19.998,327.162 L19.998,264.043 L57.067,264.043 C59.707,264.043 61.854,266.191 61.854,268.83 L61.854,348.973 C61.854,351.612 59.707,353.76 57.067,353.76 L46.682,353.76 C41.16,353.76 36.683,358.236 36.683,363.759 C36.683,369.281 41.16,373.758 46.682,373.758 L57.066,373.758 C67.462,373.758 76.377,367.322 80.052,358.227 C95.64,358.316 110.279,365.219 120.255,377.211 L145.232,407.233 C159.084,423.884 179.45,433.433 201.109,433.433 L305.553,433.433 C322.567,433.433 336.41,419.591 336.41,402.576 C336.41,385.561 322.567,371.719 305.553,371.719 Z" id="Path" fill="#6574CD"></path>
                <path d="M502.001,92.934 C496.479,92.934 492.002,97.41 492.002,102.933 L492.002,169.958 L454.933,169.958 C452.293,169.958 450.146,167.81 450.146,165.171 L450.146,85.028 C450.146,82.389 452.293,80.241 454.933,80.241 L464.584,80.241 C470.106,80.241 474.583,75.765 474.583,70.242 C474.583,64.72 470.106,60.243 464.584,60.243 L454.933,60.243 C444.537,60.243 435.622,66.679 431.947,75.774 C416.359,75.685 401.72,68.782 391.744,56.79 L366.767,26.769 C352.916,10.118 332.549,0.568 310.889,0.568 L206.447,0.568 C189.433,0.568 175.59,14.41 175.59,31.424 C175.59,48.438 189.433,62.28 206.447,62.28 L249.155,62.28 C254.677,62.28 259.154,57.804 259.154,52.281 C259.154,46.758 254.677,42.282 249.155,42.282 L206.447,42.282 C200.459,42.282 195.587,37.411 195.587,31.423 C195.587,25.436 200.458,20.564 206.447,20.564 L310.89,20.564 C326.591,20.564 341.355,27.486 351.395,39.556 L376.372,69.577 C389.773,85.687 409.279,95.122 430.149,95.72 L430.149,154.787 L393.333,154.787 C375.177,154.787 357.986,147.843 344.925,135.235 L291.017,83.2 C287.206,79.521 287.028,73.362 290.621,69.469 C294.283,65.502 300.499,65.244 304.478,68.891 L346.802,107.687 C350.873,111.418 357.196,111.144 360.929,107.073 C364.66,103.002 364.385,96.677 360.314,92.946 L317.99,54.151 C305.91,43.078 287.042,43.867 275.926,55.907 C265.02,67.723 265.559,86.421 277.128,97.588 L331.036,149.623 C347.845,165.849 369.969,174.785 393.333,174.785 L432.091,174.785 C435.853,183.689 444.676,189.954 454.934,189.954 L502.002,189.954 C507.524,189.954 512.001,185.478 512.001,179.955 L512.001,102.931 C512,97.41 507.523,92.934 502.001,92.934 Z" id="Path" fill="#6574CD"></path>
                <path d="M322.838,340.643 C320.564,335.611 314.654,333.366 309.626,335.639 C304.562,337.844 302.246,343.736 304.451,348.798 C306.089,352.561 309.765,354.807 313.623,354.807 C314.956,354.807 316.31,354.539 317.61,353.973 C317.652,353.955 317.784,353.896 317.825,353.878 C322.858,351.605 325.111,345.676 322.838,340.643 Z" id="Path" fill="#6574CD"></path>
                <path d="M347.693,323.809 C344.424,319.369 338.141,318.445 333.696,321.699 C329.241,324.961 328.273,331.218 331.535,335.673 C333.494,338.348 336.53,339.766 339.61,339.766 C341.66,339.766 343.729,339.138 345.509,337.835 C345.525,337.824 345.619,337.754 345.634,337.743 C350.063,334.463 350.961,328.247 347.693,323.809 Z" id="Path" fill="#6574CD"></path>
                <path d="M294.884,351.868 C293.745,346.483 288.458,343.035 283.068,344.149 C277.684,345.218 274.164,350.433 275.196,355.833 C276.112,360.623 280.303,363.956 285.006,363.956 C285.628,363.956 286.261,363.897 286.894,363.776 C286.959,363.763 287.123,363.73 287.189,363.716 C292.589,362.571 296.027,357.269 294.884,351.868 Z" id="Path" fill="#6574CD"></path>
                <path d="M368.581,302.061 C364.481,298.363 358.16,298.688 354.46,302.789 C354.411,302.844 354.296,302.974 354.248,303.029 C350.64,307.21 351.106,313.524 355.287,317.131 C357.176,318.761 359.5,319.559 361.813,319.559 C364.59,319.559 367.351,318.409 369.325,316.165 C373.007,312.064 372.676,305.754 368.581,302.061 Z M362.997,310.492 L361.885,309.486 L363.089,310.572 L362.997,310.492 Z" id="Shape" fill="#6574CD"></path>
                <path d="M394.031,247.873 C388.747,246.27 383.157,249.285 381.554,254.57 C379.93,259.848 382.892,265.443 388.17,267.067 C389.149,267.369 390.139,267.512 391.113,267.512 C395.387,267.512 399.344,264.75 400.666,260.451 L400.708,260.314 C402.31,255.029 399.315,249.475 394.031,247.873 Z" id="Path" fill="#6574CD"></path>
                <path d="M406.838,196.267 C406.816,196.14 406.792,196.013 406.765,195.886 C405.636,190.482 400.34,187.025 394.938,188.152 C389.555,189.274 386.094,194.538 387.178,199.92 C388.095,204.691 392.276,208.03 396.984,208.03 C397.569,208.03 398.163,207.979 398.758,207.872 C404.194,206.899 407.811,201.703 406.838,196.267 Z" id="Path" fill="#6574CD"></path>
                <path d="M397.668,217.962 C392.185,217.478 387.315,221.543 386.83,227.043 C386.821,227.14 386.807,227.337 386.801,227.434 C386.477,232.947 390.682,237.679 396.195,238.003 C396.395,238.015 396.593,238.021 396.791,238.021 C401.997,238.021 406.372,233.995 406.755,228.752 C407.211,223.272 403.153,218.446 397.668,217.962 Z" id="Path" fill="#6574CD"></path>
                <path d="M384.243,276.325 C379.443,273.604 373.337,275.29 370.615,280.095 L370.476,280.345 C367.843,285.199 369.62,291.312 374.473,293.945 C376,294.773 377.643,295.166 379.262,295.166 C382.791,295.166 386.2,293.294 388.005,289.966 L379.313,285.024 L388.012,289.954 C390.735,285.149 389.048,279.048 384.243,276.325 Z" id="Path" fill="#6574CD"></path>
                <path d="M202.895,85.9 C200.426,80.96 194.417,78.957 189.481,81.428 L189.392,81.472 C184.452,83.942 182.495,89.925 184.965,94.864 C186.714,98.363 190.258,100.377 193.932,100.377 C195.446,100.377 196.982,100.035 198.423,99.315 C203.363,96.846 205.364,90.84 202.895,85.9 Z" id="Path" fill="#6574CD"></path>
                <path d="M231.822,77.563 C230.521,72.198 225.123,68.9 219.748,70.202 C219.702,70.213 219.56,70.249 219.514,70.261 C214.166,71.639 210.927,77.096 212.304,82.443 C213.467,86.955 217.514,89.954 221.963,89.954 C222.787,89.954 223.625,89.851 224.461,89.636 C229.827,88.335 233.123,82.93 231.822,77.563 Z" id="Path" fill="#6574CD"></path>
                <path d="M176.456,100.319 C172.998,96.022 166.702,95.347 162.4,98.797 L168.599,106.642 L162.37,98.82 C158.05,102.26 157.337,108.55 160.776,112.87 C162.752,115.35 165.665,116.641 168.606,116.641 C170.788,116.641 172.987,115.929 174.828,114.464 L174.96,114.358 C179.25,110.893 179.914,104.616 176.456,100.319 Z" id="Path" fill="#6574CD"></path>
                <path d="M123.143,171.461 C117.815,170.009 112.319,173.148 110.866,178.476 C110.841,178.567 110.793,178.756 110.77,178.848 C109.47,184.213 112.766,189.608 118.13,190.911 C118.922,191.103 119.714,191.195 120.494,191.195 C124.98,191.195 129.056,188.151 130.192,183.614 C131.563,178.326 128.43,172.903 123.143,171.461 Z" id="Path" fill="#6574CD"></path>
                <path d="M116.773,200.84 C111.246,200.533 106.532,204.732 106.212,210.244 C106.204,210.373 106.199,210.501 106.195,210.629 C106.033,216.146 110.374,220.743 115.892,220.908 C115.994,220.911 116.094,220.913 116.195,220.913 C121.555,220.913 125.984,216.66 126.182,211.276 C126.432,205.817 122.244,201.158 116.773,200.84 Z" id="Path" fill="#6574CD"></path>
                <path d="M135.727,144.136 C130.836,141.57 124.793,143.455 122.228,148.345 L122.065,148.667 C119.628,153.62 121.672,159.602 126.624,162.041 C128.042,162.74 129.545,163.07 131.028,163.07 C134.7,163.07 138.235,161.038 139.987,157.538 C142.477,152.665 140.585,146.685 135.727,144.136 Z" id="Path" fill="#6574CD"></path>
                <path d="M153.785,120.079 C149.536,116.552 143.232,117.137 139.705,121.385 C139.657,121.444 139.547,121.58 139.499,121.639 C136.071,125.966 136.804,132.244 141.129,135.674 C142.965,137.131 145.155,137.837 147.331,137.837 C150.264,137.837 153.172,136.553 155.147,134.091 C158.611,129.844 158.011,123.588 153.785,120.079 Z" id="Path" fill="#6574CD"></path>
                <path d="M128.073,239.028 C127.1,233.592 121.901,229.975 116.468,230.949 C111.032,231.923 107.415,237.118 108.388,242.554 L108.406,242.652 C109.272,247.485 113.469,250.842 118.21,250.842 C118.801,250.842 119.4,250.79 120.002,250.682 C125.438,249.709 129.047,244.464 128.073,239.028 Z" id="Path" fill="#6574CD"></path>
                <path d="M290.332,163.125 C277.317,163.125 265.258,168.492 256.665,177.549 C248.071,168.492 236.013,163.125 222.998,163.125 C197.395,163.125 176.566,183.954 176.566,209.557 C176.566,223.372 182.659,236.374 193.281,245.23 C193.345,245.284 193.411,245.337 193.477,245.39 L250.458,290.502 C252.276,291.942 254.47,292.661 256.664,292.661 C258.868,292.661 261.072,291.935 262.894,290.483 L322.289,243.173 C322.58,242.942 322.857,242.694 323.12,242.432 C331.919,233.657 336.764,221.982 336.764,209.557 C336.764,183.954 315.935,163.125 290.332,163.125 Z M309.36,227.908 L256.647,269.896 L205.997,229.797 C200.001,224.753 196.564,217.384 196.564,209.559 C196.563,194.982 208.422,183.123 222.998,183.123 C233.729,183.123 243.318,189.532 247.428,199.45 C248.977,203.185 252.622,205.621 256.665,205.621 C260.708,205.621 264.353,203.186 265.902,199.45 C270.012,189.532 279.601,183.123 290.332,183.123 C304.908,183.123 316.767,194.982 316.767,209.558 C316.767,216.46 314.14,222.956 309.36,227.908 Z" id="Shape" fill="#EE49A7"></path>
                <circle id="Oval" fill="#6574CD" cx="9.999" cy="363.76" r="9.964"></circle>
                <circle id="Oval" fill="#6574CD" cx="502" cy="70.24" r="9.964"></circle>
            </g>
        </g>
    </g>
</svg>