<?xml version="1.0" encoding="UTF-8"?>
<svg width="511px" height="511px" viewBox="0 0 511 511" version="1.1" xmlns="http://www.w3.org/2000/svg" xmlns:xlink="http://www.w3.org/1999/xlink">
    <!-- Generator: Sketch 53.2 (72643) - https://sketchapp.com -->
    <title>code</title>
    <desc>Created with Sketch.</desc>
    <g id="Page-1" stroke="none" stroke-width="1" fill="none" fill-rule="evenodd">
        <g id="Artboard" transform="translate(-544.000000, -599.000000)" fill-rule="nonzero">
            <g id="code" transform="translate(544.000000, 599.000000)">
                <path d="M58.8457799,186.681549 C60.3038635,188.139633 62.2180865,188.872574 64.1323085,188.872574 C66.0465314,188.872574 67.9607544,188.143532 69.4227374,186.681549 C72.342804,183.761482 72.342804,179.024658 69.4227374,176.104592 L51.2629621,157.944816 L69.4227374,139.78894 C72.342804,136.864974 72.342804,132.13205 69.4227374,129.211983 C66.5026698,126.291915 61.7658465,126.291915 58.8457799,129.211983 L35.3994751,152.658287 C33.9959717,154.06179 33.2084508,155.964317 33.2084508,157.944816 C33.2084508,159.929215 33.9959717,161.831742 35.3994751,163.235245 L58.8457799,186.681549 Z" id="Path" fill="#EE49A7"></path>
                <path d="M133.059921,157.944816 L114.900146,176.104592 C111.98008,179.024658 111.98008,183.761482 114.904045,186.681549 C116.362129,188.139633 118.276351,188.872574 120.190574,188.872574 C122.104797,188.872574 124.01902,188.139633 125.477104,186.681549 L148.927307,163.231346 C151.847374,160.311279 151.847374,155.574455 148.927307,152.658287 L125.477104,129.208085 C122.557037,126.288017 117.824112,126.288017 114.904045,129.208085 C111.98008,132.13205 111.98008,136.864974 114.904045,139.785042 L133.059921,157.944816 Z" id="Path" fill="#EE49A7"></path>
                <path d="M81.0133362,188.354057 C81.9100184,188.704933 82.8378906,188.872574 83.746269,188.872574 C86.7326129,188.872574 89.5513148,187.071411 90.7092059,184.127952 L109.130188,137.231445 C110.642853,133.387406 108.748124,129.04824 104.904083,127.535576 C101.063942,126.02681 96.7208784,127.917641 95.2121129,131.76168 L76.7872314,178.658187 C75.278465,182.502228 77.1692958,186.845292 81.0133362,188.354057 Z" id="Path" fill="#EE49A7"></path>
                <path d="M44.9199061,232.74765 L95.3017805,232.74765 C99.4304199,232.74765 102.779335,229.398735 102.779335,225.266197 C102.779335,221.137557 99.4304199,217.788643 95.3017805,217.788643 L44.9199061,217.788643 C40.7873693,217.788643 37.4423523,221.137557 37.4423523,225.266197 C37.4423523,229.398735 40.7873693,232.74765 44.9199061,232.74765 Z" id="Path" fill="#6574CD"></path>
                <path d="M211.340324,217.788643 L122.763664,217.788643 C118.635026,217.788643 115.28611,221.137557 115.28611,225.266197 C115.28611,229.398735 118.635026,232.74765 122.763664,232.74765 L211.340324,232.74765 C215.472862,232.74765 218.821777,229.398735 218.821777,225.266197 C218.821777,221.137557 215.472862,217.788643 211.340324,217.788643 Z" id="Path" fill="#EE49A7"></path>
                <path d="M44.9199061,264.29139 L66.3818133,264.29139 C70.5104528,264.29139 73.8593671,260.942474 73.8593671,256.809937 C73.8593671,252.681297 70.5104528,249.332382 66.3818133,249.332382 L44.9199061,249.332382 C40.7873693,249.332382 37.4423523,252.681297 37.4423523,256.809937 C37.4423523,260.942474 40.7873693,264.29139 44.9199061,264.29139 Z" id="Path" fill="#6574CD"></path>
                <path d="M183.979805,249.332382 C179.847267,249.332382 176.50225,252.681297 176.50225,256.809937 C176.50225,260.942474 179.847267,264.29139 183.979805,264.29139 L197.047982,264.29139 C201.180519,264.29139 204.529435,260.942474 204.529435,256.809937 C204.529435,252.681297 201.180519,249.332382 197.047982,249.332382 L183.979805,249.332382 Z" id="Path" fill="#6574CD"></path>
                <path d="M164.29567,256.809937 C164.29567,252.681297 160.946755,249.332382 156.818115,249.332382 L92.6234288,249.332382 C88.49089,249.332382 85.145874,252.681297 85.145874,256.809937 C85.145874,260.942474 88.49089,264.29139 92.6234288,264.29139 L156.818115,264.29139 C160.946755,264.29139 164.29567,260.942474 164.29567,256.809937 Z" id="Path" fill="#6574CD"></path>
                <path d="M213.285736,256.809937 C213.285736,260.942474 216.634651,264.29139 220.76329,264.29139 L245.242729,264.29139 C249.375267,264.29139 252.724182,260.942474 252.724182,256.809937 C252.724182,252.681297 249.375267,249.332382 245.242729,249.332382 L220.76329,249.332382 C216.634651,249.332382 213.285736,252.681297 213.285736,256.809937 Z" id="Path" fill="#6574CD"></path>
                <path d="M172.556846,163.944794 L198.377411,163.944794 C202.509949,163.944794 205.858864,160.595878 205.858864,156.463341 C205.858864,152.334701 202.509949,148.985787 198.377411,148.985787 L172.556846,148.985787 C168.424309,148.985787 165.075394,152.334701 165.075394,156.463341 C165.075394,160.595878 168.424309,163.944794 172.556846,163.944794 Z" id="Path" fill="#6574CD"></path>
                <path d="M227.297379,163.944794 L384.844536,163.944794 C388.977073,163.944794 392.32209,160.595878 392.32209,156.463341 C392.32209,152.334701 388.977073,148.985787 384.844536,148.985787 L227.297379,148.985787 C223.16484,148.985787 219.815926,152.334701 219.815926,156.463341 C219.815926,160.595878 223.16484,163.944794 227.297379,163.944794 Z" id="Path" fill="#EE49A7"></path>
                <path d="M360.914803,181.890145 L297.094383,181.890145 C292.965744,181.890145 289.616829,185.239059 289.616829,189.371598 C289.616829,193.500236 292.965744,196.849152 297.094383,196.849152 L360.914803,196.849152 C365.043441,196.849152 368.392357,193.500236 368.392357,189.371598 C368.392357,185.239059 365.043441,181.890145 360.914803,181.890145 Z" id="Path" fill="#6574CD"></path>
                <path d="M273.16465,181.890145 L251.227112,181.890145 C247.094574,181.890145 243.749557,185.239059 243.749557,189.371598 C243.749557,193.500236 247.094574,196.849152 251.227112,196.849152 L273.16465,196.849152 C277.297188,196.849152 280.642204,193.500236 280.642204,189.371598 C280.642204,185.239059 277.297188,181.890145 273.16465,181.890145 Z" id="Path" fill="#6574CD"></path>
                <path d="M172.556846,196.849152 L226.299332,196.849152 C230.427971,196.849152 233.776886,193.500236 233.776886,189.371598 C233.776886,185.239059 230.427971,181.890145 226.299332,181.890145 L172.556846,181.890145 C168.424309,181.890145 165.075394,185.239059 165.075394,189.371598 C165.075394,193.500236 168.424309,196.849152 172.556846,196.849152 Z" id="Path" fill="#6574CD"></path>
                <path d="M156.911682,280.611015 L106.533707,280.611015 C102.401168,280.611015 99.052254,283.95993 99.052254,288.08857 C99.052254,292.217208 102.401168,295.566124 106.533707,295.566124 L156.911682,295.566124 C161.040322,295.566124 164.389237,292.217208 164.389237,288.08857 C164.389237,283.95993 161.040322,280.611015 156.911682,280.611015 Z" id="Path" fill="#6574CD"></path>
                <path d="M83.6254115,280.611015 L44.9199061,280.611015 C40.7873693,280.611015 37.4423523,283.95993 37.4423523,288.08857 C37.4423523,292.217208 40.7873693,295.566124 44.9199061,295.566124 L83.6254115,295.566124 C87.7579503,295.566124 91.1029663,292.217208 91.1029663,288.08857 C91.1029663,283.95993 87.7579503,280.611015 83.6254115,280.611015 Z" id="Path" fill="#6574CD"></path>
                <path d="M248.23687,280.611015 L182.424255,280.611015 C178.291718,280.611015 174.946701,283.95993 174.946701,288.08857 C174.946701,292.217208 178.291718,295.566124 182.424255,295.566124 L248.23687,295.566124 C252.365509,295.566124 255.714424,292.217208 255.714424,288.08857 C255.714424,283.95993 252.365509,280.611015 248.23687,280.611015 L248.23687,280.611015 Z" id="Path" fill="#6574CD"></path>
                <path d="M337.23848,242.194008 L301.250313,242.194008 C297.121674,242.194008 293.772758,245.542923 293.772758,249.671562 C293.772758,253.8041 297.121674,257.153015 301.250313,257.153015 L337.23848,257.153015 C341.371017,257.153015 344.716034,253.8041 344.716034,249.671562 C344.716034,245.542923 341.371017,242.194008 337.23848,242.194008 L337.23848,242.194008 Z" id="Path" fill="#6574CD"></path>
                <path d="M399.686584,257.153015 L450.48951,257.153015 C454.622048,257.153015 457.970963,253.8041 457.970963,249.671562 C457.970963,245.542923 454.622048,242.194008 450.48951,242.194008 L399.686584,242.194008 C395.554047,242.194008 392.20903,245.542923 392.20903,249.671562 C392.20903,253.8041 395.557945,257.153015 399.686584,257.153015 Z" id="Path" fill="#6574CD"></path>
                <path d="M374.283173,242.194008 L362.641891,242.194008 C358.509354,242.194008 355.160439,245.542923 355.160439,249.671562 C355.160439,253.8041 358.509354,257.153015 362.641891,257.153015 L374.283173,257.153015 C378.41571,257.153015 381.760726,253.8041 381.760726,249.671562 C381.760726,245.542923 378.41571,242.194008 374.283173,242.194008 Z" id="Path" fill="#6574CD"></path>
                <path d="M301.250313,338.64978 L337.23848,338.64978 C341.371017,338.64978 344.716034,335.304764 344.716034,331.172225 C344.716034,327.043587 341.371017,323.694672 337.23848,323.694672 L301.250313,323.694672 C297.121674,323.694672 293.772758,327.043587 293.772758,331.172225 C293.772758,335.304764 297.121674,338.64978 301.250313,338.64978 L301.250313,338.64978 Z" id="Path" fill="#EE49A7"></path>
                <path d="M399.686584,338.64978 L450.48951,338.64978 C454.622048,338.64978 457.970963,335.304764 457.970963,331.172225 C457.970963,327.043587 454.622048,323.694672 450.48951,323.694672 L399.686584,323.694672 C395.554047,323.694672 392.20903,327.043587 392.20903,331.172225 C392.20903,335.304764 395.557945,338.64978 399.686584,338.64978 Z" id="Path" fill="#6574CD"></path>
                <path d="M362.641891,338.64978 L374.283173,338.64978 C378.41571,338.64978 381.764626,335.304764 381.764626,331.172225 C381.764626,327.043587 378.41571,323.694672 374.283173,323.694672 L362.641891,323.694672 C358.509354,323.694672 355.164337,327.043587 355.164337,331.172225 C355.164337,335.304764 358.509354,338.64978 362.641891,338.64978 Z" id="Path" fill="#6574CD"></path>
                <path d="M337.23848,405.195335 L301.250313,405.195335 C297.121674,405.195335 293.772758,408.54425 293.772758,412.67289 C293.772758,416.801529 297.121674,420.150444 301.250313,420.150444 L337.23848,420.150444 C341.371017,420.150444 344.716034,416.801529 344.716034,412.67289 C344.716034,408.54425 341.371017,405.195335 337.23848,405.195335 L337.23848,405.195335 Z" id="Path" fill="#6574CD"></path>
                <path d="M450.48951,405.195335 L399.686584,405.195335 C395.554047,405.195335 392.20903,408.54425 392.20903,412.67289 C392.20903,416.801529 395.554047,420.150444 399.686584,420.150444 L450.48951,420.150444 C454.622048,420.150444 457.970963,416.801529 457.970963,412.67289 C457.970963,408.54425 454.622048,405.195335 450.48951,405.195335 L450.48951,405.195335 Z" id="Path" fill="#6574CD"></path>
                <path d="M374.283173,405.195335 L362.641891,405.195335 C358.509354,405.195335 355.160439,408.54425 355.160439,412.67289 C355.160439,416.801529 358.509354,420.150444 362.641891,420.150444 L374.283173,420.150444 C378.41571,420.150444 381.760726,416.801529 381.760726,412.67289 C381.760726,408.54425 378.41571,405.195335 374.283173,405.195335 Z" id="Path" fill="#EE49A7"></path>
                <path d="M478.087845,0.499023438 L32.916054,0.499023438 C14.7679749,0.499023438 -2.84217094e-14,15.2630999 -2.84217094e-14,33.4150775 L-2.84217094e-14,395.273346 C-2.84217094e-14,413.421425 14.7679749,428.185502 32.916054,428.185502 L61.0601964,428.185502 C65.1888349,428.185502 68.5377502,424.840485 68.5377502,420.707947 C68.5377502,416.579307 65.1888349,413.230392 61.0601964,413.230392 L32.916054,413.230392 C23.0135577,413.230392 14.959007,405.175842 14.959007,395.273346 L14.959007,366.903084 L287.421906,366.903084 L287.421906,379.791923 L281.492104,379.791923 C273.379074,379.791923 266.782609,386.388389 266.782609,394.50142 L266.782609,413.230392 L106.529808,413.230392 C102.401168,413.230392 99.052254,416.579307 99.052254,420.707947 C99.052254,424.840485 102.401168,428.185502 106.529808,428.185502 L178.435966,428.185502 L178.435966,455.008011 L155.855156,455.008011 C140.790886,455.008011 128.537521,467.265275 128.537521,482.325645 L128.537521,498.481529 C128.537521,505.354797 134.128143,510.945419 141.001412,510.945419 L369.42939,510.945419 C376.302658,510.945419 381.89328,505.354797 381.89328,498.481529 L381.89328,482.325645 C381.89328,467.265275 369.639915,455.008011 354.575645,455.008011 L331.994835,455.008011 L331.994835,445.553856 L470.251617,445.553856 C478.360748,445.553856 484.957214,438.95739 484.957214,430.84436 L484.957214,427.323906 C499.534157,423.939903 510.430802,410.860031 510.430802,395.273346 L510.996102,33.4111781 C511,15.2630999 496.235924,0.499023437 478.087845,0.499023437 L478.087845,0.499023438 Z M281.741616,349.098083 L281.741616,313.250267 L470.002106,313.250267 L470.002106,349.098083 L281.741616,349.098083 Z M302.377014,298.29126 L302.377014,282.556427 L449.362809,282.556427 L449.362809,298.29126 L302.377014,298.29126 Z M449.362809,364.053192 L449.362809,379.791923 L302.377014,379.791923 L302.377014,364.053192 L449.362809,364.053192 Z M193.391075,428.185502 L266.782609,428.185502 L266.782609,430.848259 C266.782609,438.95739 273.379074,445.553856 281.492104,445.553856 L317.039726,445.553856 L317.039726,455.008011 L193.391075,455.008011 L193.391075,428.185502 Z M354.579545,469.967018 C361.394332,469.967018 366.938171,475.510856 366.938171,482.325645 L366.938171,495.990311 L143.492631,495.990311 L143.492631,482.325645 C143.492631,475.510856 149.040367,469.967018 155.855156,469.967018 L354.579545,469.967018 Z M470.002106,430.594849 L281.741616,430.594849 L281.741616,394.750931 L470.002106,394.750931 L470.002106,430.594849 Z M495.475692,395.273346 C495.475692,402.516984 491.156022,408.758675 484.961113,411.592972 L484.961113,394.49752 C484.961113,386.388389 478.360748,379.791923 470.251617,379.791923 L464.321816,379.791923 L464.321816,366.903084 L495.475692,366.903084 L495.475692,395.273346 Z M495.475692,351.947975 L484.715499,351.947975 C484.867546,351.101974 484.961113,313.000755 484.961113,313.000755 C484.961113,304.887726 478.360748,298.29126 470.251617,298.29126 L464.321816,298.29126 L464.321816,282.556427 L470.251617,282.556427 C478.360748,282.556427 484.961113,275.956063 484.961113,267.846932 L484.961113,231.500092 C484.961113,223.390961 478.360748,216.790596 470.251617,216.790596 L428.010063,216.790596 C423.877525,216.790596 420.532509,220.139511 420.532509,224.272049 C420.532509,228.400688 423.877525,231.749603 428.010063,231.749603 L470.002106,231.749603 L470.002106,267.59742 L281.741616,267.59742 L281.741616,231.749603 L381.476127,231.749603 C385.608665,231.749603 388.953682,228.400688 388.953682,224.272049 C388.953682,220.139511 385.608665,216.790596 381.476127,216.790596 L281.492104,216.790596 C273.379074,216.790596 266.782609,223.390961 266.782609,231.500092 L266.782609,267.846932 C266.782609,275.956063 273.379074,282.556427 281.492104,282.556427 L287.421906,282.556427 L287.421906,298.29126 L281.492104,298.29126 C273.379074,298.29126 266.782609,304.891624 266.782609,313.000755 C266.782609,313.000755 266.876175,351.101974 267.028221,351.947975 L14.959007,351.947975 L14.959007,102.22963 L495.475692,102.22963 L495.475692,351.947975 Z M495.475692,87.270622 L15.5087123,87.270622 L15.5087123,33.4111781 C15.5087123,23.5125811 23.5632629,15.4580305 33.4657593,15.4580305 L477.518646,15.4580305 C487.421143,15.4580305 495.475692,23.5125811 495.475692,33.4150775 L495.475692,87.270622 Z" id="Shape" fill="#6574CD"></path>
                <path d="M55.153786,29.2045672 C43.0524676,29.2045672 33.2084508,39.048584 33.2084508,51.1499023 C33.2084508,63.2512207 43.0524676,73.0991369 55.153786,73.0991369 C67.2551043,73.0991369 77.1030195,63.2512207 77.1030195,51.1499023 C77.1030195,39.048584 67.2551043,29.2045672 55.153786,29.2045672 Z M55.153786,58.1401288 C51.3019488,58.1401288 48.1635585,55.0056379 48.1635585,51.1499023 C48.1635585,47.2980652 51.3019488,44.1596758 55.153786,44.1596758 C59.0095215,44.1596758 62.1440125,47.2980652 62.1440125,51.1499023 C62.1440125,55.0056379 59.0095215,58.1401288 55.153786,58.1401288 Z" id="Shape" fill="#6574CD"></path>
                <path d="M111.032715,29.2045672 C98.9313965,29.2045672 89.0834803,39.048584 89.0834803,51.1499023 C89.0834803,63.2512207 98.9313965,73.0991369 111.032715,73.0991369 C123.134033,73.0991369 132.97805,63.2512207 132.97805,51.1499023 C132.97805,39.048584 123.130135,29.2045672 111.032715,29.2045672 Z M111.032715,58.1401288 C107.176979,58.1401288 104.042488,55.0056379 104.042488,51.1499023 C104.042488,47.2980652 107.176979,44.1596758 111.032715,44.1596758 C114.884552,44.1596758 118.022941,47.2980652 118.022941,51.1499023 C118.022941,55.0056379 114.884552,58.1401288 111.032715,58.1401288 Z" id="Shape" fill="#6574CD"></path>
                <path d="M166.907745,29.2045672 C154.806427,29.2045672 144.96241,39.048584 144.96241,51.1499023 C144.96241,63.2512207 154.806427,73.0991369 166.907745,73.0991369 C179.009064,73.0991369 188.856979,63.2512207 188.856979,51.1499023 C188.856979,39.048584 179.009064,29.2045672 166.907745,29.2045672 Z M166.907745,58.1401288 C163.055908,58.1401288 159.917519,55.0056379 159.917519,51.1499023 C159.917519,47.2980652 163.055908,44.1596758 166.907745,44.1596758 C170.763481,44.1596758 173.897972,47.2980652 173.897972,51.1499023 C173.897972,55.0056379 170.763481,58.1401288 166.907745,58.1401288 Z" id="Shape" fill="#6574CD"></path>
            </g>
        </g>
    </g>
</svg>