<?xml version="1.0" encoding="UTF-8"?>
<svg width="424px" height="473px" viewBox="0 0 424 473" version="1.1" xmlns="http://www.w3.org/2000/svg" xmlns:xlink="http://www.w3.org/1999/xlink">
    <!-- Generator: Sketch 53.2 (72643) - https://sketchapp.com -->
    <title>package</title>
    <desc>Created with Sketch.</desc>
    <g id="Page-1" stroke="none" stroke-width="1" fill="none" fill-rule="evenodd">
        <g id="Artboard" transform="translate(-1065.000000, -92.000000)" fill-rule="nonzero">
            <g id="package" transform="translate(1065.000000, 92.000000)">
                <path d="M40.004,264.002 C35.586,264.002 32.004,267.584 32.004,272.002 L32.004,304.002 C32.004,308.42 35.586,312.002 40.004,312.002 C44.422,312.002 48.004,308.42 48.004,304.002 L48.004,272.002 C48.004,267.584 44.422,264.002 40.004,264.002 Z" id="Path" fill="#EE49A7"></path>
                <path d="M72.004,280.002 C67.586,280.002 64.004,283.584 64.004,288.002 L64.004,320.002 C64.004,324.42 67.586,328.002 72.004,328.002 C76.422,328.002 80.004,324.42 80.004,320.002 L80.004,288.002 C80.004,283.584 76.422,280.002 72.004,280.002 Z" id="Path" fill="#EE49A7"></path>
                <path d="M363.796,322.938 C360.067,320.568 355.123,321.671 352.753,325.4 C350.479,328.979 351.392,333.711 354.836,336.186 C376.826,350.992 382.649,380.821 367.844,402.81 C353.038,424.8 323.209,430.624 301.22,415.818 C279.23,401.012 273.406,371.183 288.212,349.194 C297.127,335.953 312.042,328.01 328.004,328.002 C332.422,328.002 336.004,324.42 336.004,320.002 C336.004,315.584 332.422,312.002 328.004,312.002 C292.658,312.009 264.009,340.668 264.016,376.014 C264.023,411.36 292.682,440.009 328.028,440.002 C363.374,439.995 392.023,411.336 392.016,375.99 C392.012,354.715 381.436,334.832 363.796,322.938 Z" id="Path" fill="#6574CD"></path>
                <path d="M420.235,349.43 C412.484,322.579 393.412,300.441 368.004,288.802 L368.004,112.002 C368.005,109.173 366.511,106.554 364.076,105.114 L188.076,1.114 C185.564,-0.371 182.443,-0.371 179.932,1.114 L3.932,105.114 C3.764,105.21 3.644,105.354 3.484,105.466 C3.324,105.578 3.172,105.706 3.012,105.834 C2.317,106.381 1.72,107.041 1.244,107.786 C1.244,107.842 1.148,107.874 1.116,107.93 L1.116,107.986 C0.665,108.799 0.359,109.684 0.212,110.602 C0.212,110.842 0.14,111.066 0.116,111.306 C0.092,111.546 0.004,111.762 0.004,112.002 L0.004,320.002 C0.003,322.831 1.497,325.45 3.932,326.89 L179.932,430.89 C180.143,430.992 180.359,431.083 180.58,431.162 C180.798,431.271 181.023,431.367 181.252,431.45 C183.013,432.186 184.995,432.186 186.756,431.45 C186.988,431.367 187.215,431.271 187.436,431.162 C187.644,431.066 187.868,431.01 188.076,430.89 L235.844,402.658 C250.543,453.576 303.735,482.938 354.654,468.239 C405.572,453.541 434.934,400.348 420.235,349.43 Z M184.004,17.29 L225.604,41.874 L163.924,78.322 C160.118,80.571 158.855,85.48 161.104,89.286 C163.353,93.092 168.262,94.355 172.068,92.106 L241.34,51.202 L282.94,75.786 L122.668,170.466 L81.068,145.882 L148.084,106.282 C151.89,104.033 153.153,99.124 150.904,95.318 C148.655,91.512 143.746,90.249 139.94,92.498 L65.34,136.586 L23.732,112.002 L184.004,17.29 Z M114.668,184.33 L114.668,237.746 L73.34,213.322 L73.34,159.906 L114.668,184.33 Z M235.165,351.272 C233.037,359.342 231.974,367.656 232.004,376.002 C232.006,379.35 232.182,382.696 232.532,386.026 L192.004,409.986 L192.004,384.002 C192.004,379.584 188.422,376.002 184.004,376.002 C179.586,376.002 176.004,379.584 176.004,384.002 L176.004,409.986 L16.004,315.442 L16.004,126.026 L57.34,150.45 L57.34,217.882 C57.337,220.714 58.83,223.337 61.268,224.778 L118.596,258.658 C119.83,259.384 121.236,259.768 122.668,259.77 C127.086,259.77 130.668,256.188 130.668,251.77 L130.668,193.778 L176.004,220.57 L176.004,352.002 C176.004,356.42 179.586,360.002 184.004,360.002 C188.422,360.002 192.004,356.42 192.004,352.002 L192.004,220.57 L336.996,134.89 C340.8,132.641 342.061,127.734 339.812,123.93 C337.563,120.126 332.656,118.865 328.852,121.114 L184.004,206.714 L138.404,179.762 L298.676,85.05 L352.004,116.562 L352.004,283.202 C300.943,269.735 248.632,300.21 235.165,351.272 Z M328.004,456.002 C283.821,456.002 248.004,420.185 248.004,376.002 C248.004,331.819 283.821,296.002 328.004,296.002 C372.187,296.002 408.004,331.819 408.004,376.002 C407.956,420.165 372.167,455.953 328.004,456.002 Z" id="Shape" fill="#6574CD"></path>
                <path d="M357.464,354.346 C354.364,351.351 349.448,351.351 346.348,354.346 L316.004,384.69 L309.66,378.346 C306.482,375.276 301.418,375.364 298.348,378.542 C295.353,381.642 295.353,386.558 298.348,389.658 L310.348,401.658 C313.472,404.781 318.536,404.781 321.66,401.658 L357.66,365.658 C360.73,362.48 360.642,357.415 357.464,354.346 Z" id="Path" fill="#EE49A7"></path>
            </g>
        </g>
    </g>
</svg>